<svg style="display:inline-block;vertical-align:middle;" width="20px" height="20px" viewBox="0 0 23 23"><g data-name="Group 42518" transform="translate(-200 -125)" data-reactid=".1384pwk7iz4.4.0.1.0.0.2.0.0.0.$store-item-2.0.0"><circle data-name="Ellipse 868" cx="11.5" cy="11.5" r="11.5" transform="translate(200 125)" fill="#4fb65c"></circle><path data-name="Path 68355" d="M222.951 137.505v-.481h-1.736l-2.35.481-2.588.681-2.561.528-3.512.713-3.618.607-2.588.343 3.135 6.773a12.162 12.162 0 005.339.814 13.2 13.2 0 003.2-.675 9.319 9.319 0 002.355-1.317 11.624 11.624 0 004.924-8.467z" fill="#206b1f"></path><path data-name="Path 68334" d="M216.308 138.081l-1.353.263.104.535a2.85 2.85 0 01.045.365l1.375-.267z" fill="#fef0ae"></path><path data-name="Path 68335" d="M221.433 138.406l-4.733.92a.182.182 0 01-.213-.144l-.223-1.145a.182.182 0 01.144-.214l4.733-.92a.547.547 0 01.641.433l.083.429a.547.547 0 01-.432.641z" fill="#fe9901"></path><path data-name="Path 68336" d="M217.91 138.34a.182.182 0 01-.214-.144l-.117-.603-1.168.227a.182.182 0 00-.144.213l.222 1.146a.182.182 0 00.214.144l4.732-.92a.547.547 0 00.433-.642l-.036-.183z" fill="#fb8801"></path><path data-name="Path 68337" d="M212.834 142.231l-5.435 1.057a2.864 2.864 0 01-3.357-2.264l-.129-.66a.109.109 0 01.087-.128l10.84-2.107a.109.109 0 01.129.086l.128.66a2.864 2.864 0 01-2.263 3.356z" fill="#fb2b3a"></path><path data-name="Path 68338" d="M206.17 140.61l-.127-.66a.109.109 0 01.086-.128l-2.13.414a.109.109 0 00-.086.128l.129.66a2.864 2.864 0 003.358 2.265l2.129-.414a2.864 2.864 0 01-3.358-2.265z" fill="#e41f2d"></path><path data-name="Path 68339" d="M207.933 131.838a1.606 1.606 0 00-.397-.24.037.037 0 01-.003-.067 1.379 1.379 0 00.574-.55.038.038 0 00-.01-.048 1.374 1.374 0 00-.71-.292.038.038 0 01-.028-.058 1.8 1.8 0 00.228-1.45.038.038 0 00-.04-.027 1.8 1.8 0 00-1.26.754.038.038 0 01-.063-.004 1.375 1.375 0 00-.538-.55.038.038 0 00-.047.01 1.38 1.38 0 00-.295.739.037.037 0 01-.064.022 1.6 1.6 0 00-.371-.278.038.038 0 00-.047.01 1.813 1.813 0 00-.348 1.493l.454 1.621a.038.038 0 00.04.028l1.673-.187a1.813 1.813 0 001.255-.881.038.038 0 00-.01-.047z" fill="#248e6d"></path><g data-name="Group 42500"><path data-name="Path 68340" d="M205.766 131.177a1.976 1.976 0 01.314-1.534 1.323 1.323 0 00-.394-.331.038.038 0 00-.047.009 1.379 1.379 0 00-.295.739.037.037 0 01-.064.022 1.605 1.605 0 00-.371-.278.038.038 0 00-.047.01 1.813 1.813 0 00-.348 1.493l.454 1.621a.038.038 0 00.04.028l1.22-.135z" fill="#2e9876"></path></g><path data-name="Path 68341" d="M206.455 130.765a.265.265 0 00-.369.071l-1.206 1.79.085.304a.038.038 0 00.041.027l.314-.034 1.207-1.79a.265.265 0 00-.072-.368z" fill="#0ed290"></path><path data-name="Path 68342" d="M210.16 132.418l-.53.786a.109.109 0 01-.153.03l-.574-.388a.109.109 0 01-.03-.152l.53-.786a.109.109 0 01.152-.03l.575.388a.109.109 0 01.03.152z" fill="#a2e62e"></path><path data-name="Path 68343" d="M209.506 132.729a.109.109 0 01-.03-.153l.349-.515-.27-.182a.109.109 0 00-.152.03l-.53.785a.109.109 0 00.03.152l.574.387a.109.109 0 00.152-.03l.182-.269z" fill="#97d729"></path><path data-name="Path 68344" d="M210.326 129.756l-.785-.53a.109.109 0 01-.03-.152l.388-.574a.109.109 0 01.152-.03l.785.53a.109.109 0 01.03.152l-.388.575a.109.109 0 01-.152.03z" fill="#a2e62e"></path><path data-name="Path 68345" d="M210.14 129.11a.109.109 0 01-.03-.152l.207-.307-.266-.18a.109.109 0 00-.152.03l-.388.574a.109.109 0 00.03.153l.785.53a.109.109 0 00.153-.03l.18-.266z" fill="#97d729"></path><path data-name="Path 68346" d="M212.935 135.97l-.785-.53a.109.109 0 01-.03-.151l.388-.575a.109.109 0 01.153-.03l.785.53a.109.109 0 01.03.152l-.388.574a.11.11 0 01-.153.03z" fill="#a2e62e"></path><path data-name="Path 68347" d="M212.423 135.625l.203-.301a.109.109 0 01.152-.03l.512.346.185-.273a.109.109 0 00-.03-.152l-.785-.53a.109.109 0 00-.152.03l-.388.575a.109.109 0 00.03.152z" fill="#97d729"></path><path data-name="Path 68348" d="M204.384 137.88a3.207 3.207 0 004.329-.702.187.187 0 00-.043-.27l-4.992-3.374a.187.187 0 00-.266.062 3.207 3.207 0 00.972 4.284z" fill="#fee97d"></path><path data-name="Path 68349" d="M204.99 136.98a2.123 2.123 0 002.945-.572l-3.518-2.372a2.123 2.123 0 00.573 2.944z" fill="#fef0ae"></path><path data-name="Path 68350" d="M205.595 136.084a1.04 1.04 0 001.442-.28l-1.723-1.162a1.04 1.04 0 00.28 1.442z" fill="#fee97d"></path><path data-name="Path 68351" d="M213.714 132.247a.112.112 0 00.162-.04 1.175 1.175 0 00-1.937-1.307.112.112 0 00.023.164z" fill="#fb2b3a"></path><path data-name="Path 68352" d="M213.913 131.232l.028.02a1.175 1.175 0 00-2.004-.352.112.112 0 00.023.165l.462.311a1.175 1.175 0 011.49-.144z" fill="#e41f2d"></path><path data-name="Path 68353" d="M208.154 135.187a1.474 1.474 0 00.182 2.055 1.071 1.071 0 00.292.138.569.569 0 00.632-.231l.266-.394.586.395a.111.111 0 00.154-.03l.475-.703a.111.111 0 00-.03-.154l-.586-.396.265-.394a.573.573 0 00-.031-.686 1.071 1.071 0 00-.227-.206 1.474 1.474 0 00-1.978.606z" fill="#f6a96c"></path><path data-name="Path 68354" d="M209.237 137.067a1.474 1.474 0 01-.182-2.055 1.872 1.872 0 01.643-.596 1.622 1.622 0 00-1.543.77 1.474 1.474 0 00.182 2.056 1.069 1.069 0 00.292.137.569.569 0 00.632-.23l.033-.049a.695.695 0 01-.057-.033z" fill="#ea9b58"></path></g></svg>