<svg style="display:inline-block;vertical-align:middle;" width="20px" height="20px" viewBox="0 0 82.068 82" data-reactid=".1384pwk7iz4.4.0.1.0.0.2.0.0.0.$store-item-0.0"><defs data-reactid=".1384pwk7iz4.4.0.1.0.0.2.0.0.0.$store-item-0.0.0"><linearGradient id="linear-gradient" x1="0.732" x2="0.297" y1="0.882" y2="0.298" gradientUnits="objectBoundingBox" data-reactid=".1384pwk7iz4.4.0.1.0.0.2.0.0.0.$store-item-0.0.0.0"><stop offset="0" stop-color="#ff9c69" data-reactid=".1384pwk7iz4.4.0.1.0.0.2.0.0.0.$store-item-0.0.0.0.0"></stop><stop offset="0.995" stop-color="#ffccac" data-reactid=".1384pwk7iz4.4.0.1.0.0.2.0.0.0.$store-item-0.0.0.0.1"></stop></linearGradient></defs><g data-name="Group 42411" transform="translate(-34 -144)" data-reactid=".1384pwk7iz4.4.0.1.0.0.2.0.0.0.$store-item-0.0.1"><circle cx="38.582" cy="38.582" r="38.582" fill="#ffed7a" data-name="Ellipse 855" transform="translate(34 144)" data-reactid=".1384pwk7iz4.4.0.1.0.0.2.0.0.0.$store-item-0.0.1.0"></circle><path fill="#ebd023" d="M0 0h46.153v34.3a41.864 41.864 0 01-11.087 5.98 40.532 40.532 0 01-12.8 2.1 35.444 35.444 0 01-14.381-3A104.423 104.423 0 01.079 35.6z" data-name="Path 68291" transform="rotate(-42 280.061 27.68)" data-reactid=".1384pwk7iz4.4.0.1.0.0.2.0.0.0.$store-item-0.0.1.1"></path><g transform="translate(51.648 151.599)" data-reactid=".1384pwk7iz4.4.0.1.0.0.2.0.0.0.$store-item-0.0.1.2"><path fill="url(#linear-gradient)" d="M129.56 51.76c-4.83-17.288-13.631-21.689-17.454-22.8a6.646 6.646 0 00-3.713 0c-3.824 1.112-12.624 5.514-17.454 22.8 0 0-8.094 26.171 11.848 32.823a23.622 23.622 0 0014.926 0c19.941-6.652 11.847-32.823 11.847-32.823z" data-name="Path 68284" transform="translate(-89.314 -28.694)" data-reactid=".1384pwk7iz4.4.0.1.0.0.2.0.0.0.$store-item-0.0.1.2.0"></path></g></g></svg>