<svg xmlns="http://www.w3.org/2000/svg" width="20" height="18.511" viewBox="0 0 20 18.511">
  <g id="heart_1_" data-name="heart (1)" transform="translate(0 -19.058)">
    <path id="Path_68236" data-name="Path 68236" d="M260.465,19.058q-.193,0-.382.013l-3.98,18.5c.229-.133,9.995-5.867,10-12.874A5.634,5.634,0,0,0,260.465,19.058Z" transform="translate(-246.099 0)" fill="#e0230d"/>
    <path id="Path_68237" data-name="Path 68237" d="M13.984,19.071c2.461.2,4.406,2.639,4.406,5.622,0,7-8.178,12.729-8.386,12.874l0,0S0,31.782,0,24.692a5.634,5.634,0,0,1,10-3.56A5.622,5.622,0,0,1,13.984,19.071Z" transform="translate(0 0)" fill="#ff5440"/>
  </g>
</svg>