<svg style="display:inline-block;vertical-align:middle;" width="20px" height="20px" viewBox="0 0 73.457 76" data-reactid=".1384pwk7iz4.4.0.1.0.0.2.0.0.0.$store-item-1.0"><g data-name="Group 42412" transform="translate(24405 1908)" data-reactid=".1384pwk7iz4.4.0.1.0.0.2.0.0.0.$store-item-1.0.0"><g transform="translate(-24405.051 -1907.627)" data-reactid=".1384pwk7iz4.4.0.1.0.0.2.0.0.0.$store-item-1.0.0.0"><ellipse cx="36.5" cy="38" fill="#6d76e7" data-name="Ellipse 856" rx="36.5" ry="38" transform="translate(.051 -.373)" data-reactid=".1384pwk7iz4.4.0.1.0.0.2.0.0.0.$store-item-1.0.0.0.0"></ellipse><path fill="#1c2ede" d="M145.173 108.444a37.005 37.005 0 00-.426-5.613l-15.336-15.354a12.891 12.891 0 00-18.177 0l-23.757 23.758a12.89 12.89 0 000 18.176l15.347 15.334a36.757 36.757 0 0042.349-36.3z" data-name="Path 68292" transform="translate(-71.663 -70.664)" data-reactid=".1384pwk7iz4.4.0.1.0.0.2.0.0.0.$store-item-1.0.0.0.1"></path><path fill="#fff" d="M87.477 129.411a12.891 12.891 0 010-18.177l23.758-23.758a12.891 12.891 0 0118.177 0 12.89 12.89 0 010 18.176l-23.758 23.758a12.89 12.89 0 01-18.177.001z" data-name="Path 68293" transform="translate(-71.663 -70.664)" data-reactid=".1384pwk7iz4.4.0.1.0.0.2.0.0.0.$store-item-1.0.0.0.2"></path><path fill="#9cfdff" d="M151.789 128.031l-23.757 23.757a12.891 12.891 0 01-18.177 0l41.935-41.935a12.89 12.89 0 010 18.177z" data-name="Path 68294" transform="translate(-94.042 -93.042)" data-reactid=".1384pwk7iz4.4.0.1.0.0.2.0.0.0.$store-item-1.0.0.0.3"></path><path fill="#ffaa20" d="M117.533 210.834l-11.879 11.879a12.852 12.852 0 11-18.176-18.176l11.879-11.879z" data-name="Path 68295" transform="translate(-71.664 -163.966)" data-reactid=".1384pwk7iz4.4.0.1.0.0.2.0.0.0.$store-item-1.0.0.0.4"></path><path fill="#e67500" d="M139.91 265.088l-11.879 11.879a12.891 12.891 0 01-18.177 0L130.823 256z" data-name="Path 68296" transform="translate(-94.042 -218.22)" data-reactid=".1384pwk7iz4.4.0.1.0.0.2.0.0.0.$store-item-1.0.0.0.5"></path></g></g></svg>