<?xml version="1.0" encoding="utf-8"?>
<!-- Generator: Adobe Illustrator 16.0.0, SVG Export Plug-In . SVG Version: 6.00 Build 0)  -->
<!DOCTYPE svg PUBLIC "-//W3C//DTD SVG 1.1//EN" "http://www.w3.org/Graphics/SVG/1.1/DTD/svg11.dtd">
<svg version="1.1" id="Layer_1" xmlns="http://www.w3.org/2000/svg" xmlns:xlink="http://www.w3.org/1999/xlink" x="0px" y="0px"
	 width="128px" height="128px" viewBox="0 0 128 128" enable-background="new 0 0 128 128" xml:space="preserve">
<g>
	<g>
		<g>
			<path fill="#ffffff" d="M80.01,67.485l-3.998-0.045c0.037-3.186,0.21-6.448,0.517-9.696c0.685-7.282,1.99-14.323,3.795-20.489
				c-5.131-2.589-9.521-8.007-11.96-14.871c-0.952-2.669-1.538-5.427-1.752-8.221h-1.752v-1.81H62.86v-2.188h7.634l0.026,1.972
				c0.04,3.027,0.582,6.024,1.609,8.907c2.283,6.427,6.617,11.489,11.313,13.216l1.792,0.659l-0.576,1.82
				c-1.992,6.295-3.428,13.688-4.15,21.38C80.213,61.259,80.045,64.41,80.01,67.485z"/>
		</g>
		<g>
			<path fill="#ffffff" d="M47.995,67.487c-0.036-3.082-0.203-6.233-0.497-9.367c-0.723-7.693-2.16-15.086-4.156-21.378
				l-0.578-1.823l1.795-0.658c4.695-1.723,9.032-6.786,11.318-13.215c1.025-2.886,1.566-5.883,1.609-8.909l0.027-1.971h7.631v2.188
				h-1.998v1.81h-1.752c-0.214,2.792-0.801,5.55-1.751,8.222c-2.441,6.866-6.834,12.284-11.965,14.87
				c1.808,6.165,3.115,13.206,3.8,20.49c0.304,3.242,0.478,6.504,0.515,9.694L47.995,67.487z"/>
		</g>
		<g>
			<polygon fill="#ffffff" points="81.431,97.657 77.433,97.657 77.433,79.292 50.568,79.292 50.568,97.657 46.57,97.657 
				46.57,75.293 81.431,75.293 			"/>
		</g>
		<g>
			<path fill="#ffffff" d="M82.665,79.872H45.337V66.168h37.328V79.872z M49.335,75.874h29.332v-5.708H49.335V75.874z"/>
		</g>
		<g>
			<rect x="47.336" y="75.874" fill="#ffffff" width="33.33" height="3.998"/>
		</g>
		<g>
			<rect x="62.001" y="12.104" fill="#ffffff" width="3.998" height="31.053"/>
		</g>
		<g>
			<path fill="#ffffff" d="M64.001,52.664c-3.267,0-5.925-2.672-5.925-5.956s2.658-5.956,5.925-5.956
				c3.268,0,5.926,2.672,5.926,5.956S67.269,52.664,64.001,52.664z M64.001,44.75c-1.063,0-1.927,0.879-1.927,1.958
				c0,1.08,0.864,1.958,1.927,1.958s1.928-0.878,1.928-1.958C65.929,45.629,65.063,44.75,64.001,44.75z"/>
		</g>
		<g>
			<rect x="56.765" y="84.688" fill="#ffffff" width="3.998" height="9.337"/>
		</g>
		<g>
			<rect x="54.349" y="107.954" fill="#ffffff" width="3.998" height="4.946"/>
		</g>
	</g>
	<g>
		<g>
			<g>
				<g>
					<path fill="#ffffff" d="M33.654,24.78L33.654,24.78c-0.678,0-1.359-0.05-2.029-0.148l-1.432-0.212l-0.246-1.427
						c-0.757-4.396,0.629-8.919,3.706-12.101c2.618-2.712,6.136-4.206,9.903-4.206c0.677,0,1.358,0.05,2.027,0.149l1.434,0.212
						l0.245,1.427c0.755,4.397-0.63,8.922-3.705,12.102C40.939,23.287,37.422,24.78,33.654,24.78z M43.466,10.686
						c-2.639,0.023-5.1,1.081-6.938,2.985c-1.839,1.901-2.829,4.478-2.785,7.111c2.64-0.023,5.102-1.081,6.939-2.984
						C42.521,15.897,43.511,13.321,43.466,10.686z"/>
				</g>
				<g>
					<path fill="#ffffff" d="M21.056,39.387l-1.254-0.746c-3.722-2.217-6.182-6.117-6.579-10.436
						c-0.397-4.313,1.303-8.603,4.55-11.473l1.095-0.967l1.254,0.748c3.719,2.218,6.179,6.117,6.578,10.432
						c0.398,4.314-1.302,8.604-4.55,11.476L21.056,39.387z M19.342,20.853c-1.585,1.942-2.371,4.458-2.138,6.985
						c0.232,2.527,1.465,4.853,3.376,6.464c1.585-1.943,2.372-4.46,2.138-6.987C22.484,24.789,21.252,22.466,19.342,20.853z"/>
				</g>
				<g>
					<path fill="#ffffff" d="M15.505,60.631L14.06,60.49c-4.305-0.421-8.174-2.912-10.351-6.662
						c-2.17-3.741-2.427-8.352-0.687-12.332l0.581-1.332l1.446,0.143c4.304,0.424,8.173,2.913,10.348,6.66
						c2.17,3.741,2.427,8.352,0.688,12.334L15.505,60.631z M6.18,44.563c-0.627,2.44-0.286,5.063,0.987,7.259
						c1.271,2.188,3.358,3.767,5.76,4.412c0.627-2.442,0.287-5.064-0.986-7.261C10.671,46.787,8.583,45.208,6.18,44.563z"/>
				</g>
				<g>
					<path fill="#ffffff" d="M13.489,83.521L13.489,83.521c-2.746,0-5.395-0.834-7.657-2.412c-3.539-2.469-5.708-6.54-5.801-10.893
						L0,68.773l1.36-0.483c1.458-0.519,2.979-0.781,4.523-0.781c2.748,0,5.396,0.835,7.659,2.412c3.54,2.473,5.707,6.545,5.8,10.894
						l0.031,1.442l-1.36,0.484C16.555,83.26,15.033,83.521,13.489,83.521z M4.183,71.661c0.453,2.484,1.86,4.721,3.937,6.168
						c1.589,1.109,3.446,1.694,5.37,1.694l0,0c0.573,0,1.142-0.051,1.702-0.153c-0.452-2.482-1.86-4.72-3.937-6.17
						C9.196,71.764,6.626,71.213,4.183,71.661z"/>
				</g>
				<g>
					<path fill="#ffffff" d="M21.478,105.125C21.478,105.125,21.478,105.125,21.478,105.125c-0.76,0-1.527-0.065-2.28-0.195
						c-4.25-0.731-7.927-3.501-9.835-7.408l-0.63-1.292l1.022-1.008c2.549-2.518,5.904-3.903,9.447-3.903
						c0.757,0,1.522,0.065,2.274,0.195c4.247,0.73,7.924,3.5,9.835,7.407l0.631,1.29l-1.021,1.011
						C28.374,103.739,25.02,105.125,21.478,105.125z M13.731,97.08c1.447,2.057,3.657,3.481,6.144,3.91
						c2.493,0.428,5.042-0.173,7.067-1.626c-1.448-2.058-3.658-3.483-6.144-3.911C18.305,95.023,15.758,95.627,13.731,97.08z"/>
				</g>
				<g>
					<path fill="#ffffff" d="M37.735,121.313L37.735,121.313c-3.06,0-6.065-1.07-8.466-3.017l-1.116-0.904l0.502-1.346
						c1.52-4.077,4.906-7.196,9.06-8.345c4.144-1.146,8.688-0.178,12.031,2.527l1.117,0.904l-0.501,1.347
						c-1.516,4.077-4.903,7.198-9.062,8.348C40.133,121.15,38.934,121.313,37.735,121.313z M33.048,116.056
						c2.158,1.239,4.767,1.584,7.188,0.919c2.434-0.674,4.494-2.311,5.733-4.501c-2.16-1.239-4.771-1.585-7.19-0.918
						C36.349,112.228,34.289,113.866,33.048,116.056z"/>
				</g>
				<g>
					<path fill="#ffffff" d="M56.772,112.769c-26.248-4.614-44.654-28.326-42.814-55.157c0.955-13.938,7.24-26.671,17.697-35.851
						l2.638,3.005c-9.658,8.479-15.464,20.241-16.347,33.119c-1.699,24.785,15.289,46.688,39.519,50.946L56.772,112.769z"/>
				</g>
			</g>
			<g>
				<g>
					<path fill="#ffffff" d="M94.35,24.783c-3.769,0-7.286-1.494-9.906-4.208c-3.076-3.183-4.462-7.706-3.704-12.1l0.246-1.426
						l1.432-0.212c0.668-0.099,1.35-0.149,2.025-0.149c3.766,0,7.283,1.493,9.905,4.204c3.075,3.184,4.461,7.707,3.707,12.102
						l-0.245,1.429l-1.434,0.211C95.708,24.732,95.025,24.783,94.35,24.783z M84.535,10.688c-0.045,2.632,0.946,5.208,2.785,7.11
						c1.838,1.904,4.298,2.962,6.937,2.986c0.044-2.635-0.946-5.212-2.783-7.113C89.634,11.77,87.173,10.711,84.535,10.688z"/>
				</g>
				<g>
					<path fill="#ffffff" d="M106.946,39.39l-1.093-0.966c-3.25-2.872-4.951-7.162-4.552-11.478
						c0.398-4.314,2.857-8.214,6.579-10.431l1.253-0.747l1.093,0.966c3.247,2.868,4.948,7.157,4.551,11.474
						c-0.399,4.318-2.857,8.219-6.578,10.436L106.946,39.39z M108.659,20.854c-1.911,1.613-3.144,3.936-3.377,6.461
						c-0.233,2.529,0.554,5.047,2.139,6.99c1.91-1.612,3.142-3.937,3.376-6.464C111.029,25.312,110.242,22.795,108.659,20.854z"/>
				</g>
				<g>
					<path fill="#ffffff" d="M112.495,60.636l-0.581-1.332c-1.74-3.983-1.482-8.595,0.688-12.336
						c2.178-3.749,6.047-6.238,10.351-6.661l1.446-0.143l0.581,1.333c1.738,3.982,1.481,8.592-0.688,12.331
						c-2.173,3.748-6.042,6.24-10.349,6.664L112.495,60.636z M121.82,44.563c-2.401,0.646-4.489,2.224-5.76,4.411
						c-1.275,2.197-1.615,4.822-0.986,7.267c2.419-0.639,4.469-2.194,5.758-4.419C122.106,49.627,122.446,47.005,121.82,44.563z"/>
				</g>
				<g>
					<path fill="#ffffff" d="M114.512,83.521c-1.544,0-3.065-0.262-4.523-0.78l-1.36-0.484l0.03-1.441
						c0.093-4.35,2.26-8.42,5.798-10.89c2.263-1.578,4.911-2.413,7.66-2.413c1.544,0,3.065,0.263,4.522,0.78L128,68.776l-0.03,1.443
						c-0.094,4.35-2.262,8.42-5.8,10.889C119.907,82.688,117.259,83.521,114.512,83.521z M112.811,79.37
						c2.441,0.446,5.01-0.102,7.071-1.54c2.076-1.448,3.482-3.684,3.936-6.166c-2.443-0.448-5.013,0.103-7.073,1.541
						C114.669,74.653,113.262,76.889,112.811,79.37z"/>
				</g>
				<g>
					<path fill="#ffffff" d="M106.52,105.126c-3.542,0-6.895-1.387-9.44-3.905l-1.021-1.01l0.631-1.289
						c1.909-3.907,5.586-6.676,9.834-7.405c0.754-0.13,1.52-0.195,2.279-0.195c3.541,0,6.896,1.386,9.444,3.903l1.022,1.009
						l-0.632,1.292c-1.912,3.908-5.588,6.676-9.835,7.405C108.049,105.061,107.28,105.126,106.52,105.126z M101.058,99.365
						c2.025,1.454,4.567,2.057,7.067,1.625c2.486-0.427,4.695-1.851,6.144-3.908c-2.026-1.454-4.574-2.053-7.067-1.626
						C104.715,95.883,102.505,97.309,101.058,99.365z"/>
				</g>
				<g>
					<path fill="#ffffff" d="M90.266,121.313c-1.198,0-2.398-0.163-3.565-0.485c-4.155-1.146-7.543-4.266-9.062-8.346l-0.501-1.346
						l1.116-0.904c3.342-2.707,7.89-3.673,12.032-2.528c4.151,1.146,7.538,4.267,9.06,8.344l0.502,1.348L98.73,118.3
						C96.329,120.244,93.324,121.313,90.266,121.313z M82.031,112.475c1.24,2.191,3.3,3.829,5.731,4.5
						c2.424,0.666,5.032,0.319,7.189-0.917c-1.242-2.19-3.302-3.829-5.731-4.5C86.802,110.889,84.19,111.235,82.031,112.475z"/>
				</g>
				<g>
					<path fill="#ffffff" d="M71.228,112.771l-0.692-3.938c24.23-4.262,41.22-26.164,39.519-50.946
						c-0.882-12.878-6.687-24.641-16.346-33.119l2.638-3.005c10.458,9.181,16.742,21.912,17.696,35.851
						C115.885,84.442,97.479,108.154,71.228,112.771z"/>
				</g>
			</g>
		</g>
	</g>
</g>
</svg>
